<svg width="2213" height="688" viewBox="0 0 2213 688" fill="none" xmlns="http://www.w3.org/2000/svg">
<path d="M1498.03 623C1510.91 623 1516.8 619.438 1521.18 615.328C1527.21 609.574 1529.4 602.861 1529.4 596.285C1529.4 585.325 1523.51 576.146 1513.1 573.68C1519.54 571.077 1524.47 563.679 1524.47 555.459C1524.47 549.979 1522.28 545.184 1518.44 541.348C1514.06 536.964 1507.07 533.539 1496.94 533.539H1442.82V623H1498.03ZM1498.58 582.859C1503.1 582.859 1507.07 584.777 1509.81 587.654C1512.01 589.983 1513.38 592.86 1513.38 596.148C1513.38 599.436 1512.01 602.861 1509.68 605.19C1506.94 607.93 1502.83 609.3 1498.58 609.3H1458.16V582.859H1498.58ZM1495.29 547.239C1499.54 547.239 1502.83 548.198 1505.29 550.664C1507.21 552.582 1508.44 555.322 1508.44 558.336C1508.44 561.624 1507.07 564.912 1504.74 567.241C1502.28 569.707 1498.99 570.529 1495.29 570.529H1458.16V547.239H1495.29ZM1542.61 623H1558.64L1569.32 598.888H1611.93L1622.75 623H1639.61L1598.09 533.539H1584.12L1542.61 623ZM1590.29 551.897H1591.11L1606.45 586.558H1574.8L1590.29 551.897ZM1658.36 533.539V623H1728.64V609.3H1673.7V533.539H1658.36ZM1734.86 623H1750.89L1761.58 598.888H1804.19L1815.01 623H1831.86L1790.35 533.539H1776.38L1734.86 623ZM1782.54 551.897H1783.36L1798.71 586.558H1767.06L1782.54 551.897ZM1915.96 533.539V595.6H1915.82L1864.17 533.539H1850.61V623H1865.95V560.939H1866.09L1917.74 623H1931.3V533.539H1915.96ZM2037.13 596.97C2029.45 605.19 2017.53 612.04 2003.56 612.04C1983.56 612.04 1970.54 596.97 1970.54 578.338C1970.54 559.843 1983.28 544.499 2002.88 544.499C2013.84 544.499 2026.17 549.294 2034.11 556.829L2044.52 546.554C2034.52 537.238 2018.9 530.799 2002.6 530.799C1973.97 530.799 1954.38 552.308 1954.38 578.201C1954.38 604.505 1973.83 625.74 2003.29 625.74C2022.74 625.74 2037.81 616.698 2047.4 607.108L2037.13 596.97ZM2117.75 569.433H2083.36V547.239H2140.63V533.539H2068.02V623H2143.92V609.3H2083.36V583.133H2117.75V569.433Z" fill="black"/>
<path d="M667.655 627V585.078H716.29V627H731.634V537.539H716.29V571.378H667.655V537.539H652.311V627H667.655ZM812.284 573.433H777.897V551.239H835.163V537.539H762.553V627H838.451V613.3H777.897V587.133H812.284V573.433ZM848.16 627H864.189L874.875 602.888H917.482L928.305 627H945.156L903.645 537.539H889.671L848.16 627ZM895.836 555.897H896.658L912.002 590.558H880.355L895.836 555.897ZM963.906 537.539V627H1034.19V613.3H979.25V537.539H963.906ZM1030.53 551.239H1065.74V627H1081.09V551.239H1116.16V537.539H1030.53V551.239ZM1151.03 627V585.078H1199.67V627H1215.01V537.539H1199.67V571.378H1151.03V537.539H1135.69V627H1151.03Z" fill="black"/>
<path d="M5.069 537.539L33.702 627H49.046L68.637 567.131H69.459L89.05 627H104.394L133.027 537.539H116.998L96.996 603.299H96.174L74.939 537.539H63.979L42.744 603.299H41.922L21.92 537.539H5.069ZM144.803 582.064C144.803 608.642 166.86 629.74 195.082 629.74C223.304 629.74 245.772 608.642 245.772 582.064C245.772 555.897 223.304 534.799 195.082 534.799C166.86 534.799 144.803 555.897 144.803 582.064ZM160.969 582.064C160.969 563.569 175.902 548.499 195.082 548.499C214.399 548.499 229.606 563.569 229.606 582.064C229.606 600.696 214.399 616.04 195.082 616.04C175.902 616.04 160.969 600.696 160.969 582.064ZM283.954 627V592.613H315.738L334.918 627H352.591L331.219 590.558C343.001 586.174 350.947 576.995 350.947 564.939C350.947 558.089 348.344 551.787 343.823 546.992C338.069 540.827 329.849 537.539 317.93 537.539H268.61V627H283.954ZM317.93 551.239C322.725 551.239 327.657 551.65 331.904 556.034C334.233 558.5 335.603 561.514 335.603 564.939C335.603 572.611 328.753 578.913 320.67 578.913H283.954V551.239H317.93ZM391.253 537.539H375.909V627H391.253V598.915L409.337 582.064L445.094 627H464.959L420.434 571.789L457.013 537.539H437.97L391.253 581.79V537.539Z" fill="black"/>
<path d="M548.63 596.5C555.305 596.5 560.855 591.325 560.855 584.875C560.855 578.425 555.305 573.25 548.63 573.25C541.88 573.25 536.405 578.425 536.405 584.875C536.405 591.325 541.88 596.5 548.63 596.5Z" fill="black"/>
<path d="M1327.04 596.5C1333.71 596.5 1339.26 591.325 1339.26 584.875C1339.26 578.425 1333.71 573.25 1327.04 573.25C1320.29 573.25 1314.81 578.425 1314.81 584.875C1314.81 591.325 1320.29 596.5 1327.04 596.5Z" fill="black"/>
<path d="M758.078 260.186H621.464V172.012H848.973V117.584H560.504V473H862.036V418.572H621.464V314.614H758.078V260.186ZM1010.01 473V336.385H1136.28L1212.48 473H1282.69L1197.79 328.221C1244.59 310.804 1276.16 274.337 1276.16 226.44C1276.16 199.226 1265.82 174.189 1247.86 155.139C1225 130.646 1192.34 117.584 1144.99 117.584H949.049V473H1010.01ZM1144.99 172.012C1164.04 172.012 1183.63 173.645 1200.51 191.062C1209.76 200.859 1215.2 212.833 1215.2 226.44C1215.2 256.92 1187.99 281.957 1155.88 281.957H1010.01V172.012H1144.99ZM1702.99 170.923C1654.55 129.558 1594.13 106.698 1537.53 106.698C1428.67 106.698 1343.76 190.517 1343.76 295.02C1343.76 399.522 1427.58 483.886 1540.25 483.886C1596.31 483.886 1659.45 463.203 1704.08 430.546V274.881H1536.98V329.309H1648.56V400.61C1624.61 418.572 1581.07 429.457 1544.06 429.457C1454.25 429.457 1407.45 364.144 1407.45 295.564C1407.45 222.086 1461.33 161.126 1538.07 161.126C1579.98 161.126 1630.6 179.088 1660.54 209.023L1702.99 170.923ZM1781.74 294.475C1781.74 400.066 1869.37 483.886 1981.49 483.886C2093.62 483.886 2182.88 400.066 2182.88 294.475C2182.88 190.517 2093.62 106.698 1981.49 106.698C1869.37 106.698 1781.74 190.517 1781.74 294.475ZM1845.97 294.475C1845.97 220.997 1905.29 161.126 1981.49 161.126C2058.24 161.126 2118.65 220.997 2118.65 294.475C2118.65 368.498 2058.24 429.457 1981.49 429.457C1905.29 429.457 1845.97 368.498 1845.97 294.475Z" fill="black"/>
<path d="M25.1462 141.175L486.159 407.849L25.1462 141.175ZM494.541 141.175H0H494.541ZM25.1462 141.175V472.942V141.175Z" stroke="#E84621" stroke-width="50.2923"/>
</svg>
